<svg xmlns="http://www.w3.org/2000/svg" width="627" height="150" viewBox="0 0 627 150">
  <g id="Group_11" data-name="Group 11" transform="translate(-114 -1350)">
    <rect id="Rectangle_14" data-name="Rectangle 14" width="627" height="150" rx="20" transform="translate(114 1350)"/>
    <path id="Path_2" data-name="Path 2" d="M991.225,896.8l13.619-46.118L1030,941.937l29.123-91.25,21.378,91.25,13.147-45.132" transform="translate(-848 527.048)" fill="none" stroke="#f7001e" stroke-width="4"/>
    <path id="Path_3" data-name="Path 3" d="M1074.015,799.034h18.151V752.691H1116.1v86.754h21.59V752.691h22.043v46.343h16.7" transform="translate(-774.926 627)" fill="none" stroke="#3f4add" stroke-width="4"/>
    <path id="Path_4" data-name="Path 4" d="M1186,799.535c17.807-2.3,4.124-52.9,24.6-52.9s10.327,94.522,26.431,94.522,2.817-94.522,22.662-94.522,1.617,54.676,28.73,52.9" transform="translate(-731.37 629)" fill="none" stroke="#00ac00" stroke-width="4"/>
    <path id="Path_5" data-name="Path 5" d="M1220.123,859.477l28.535-50.694-1.322,94.792,53.334-94.792v94.792l21.872-44.1" transform="translate(-609.396 566.855)" fill="none" stroke="#c5a800" stroke-width="4"/>
  </g>
</svg>
